<svg width="40" height="40" viewBox="0 0 40 40" fill="none" xmlns="http://www.w3.org/2000/svg">
<path d="M28.3327 29.9997C26.4827 29.9997 24.9993 31.483 24.9993 33.333C24.9993 34.2171 25.3505 35.0649 25.9757 35.69C26.6008 36.3152 27.4486 36.6663 28.3327 36.6663C29.2167 36.6663 30.0646 36.3152 30.6897 35.69C31.3148 35.0649 31.666 34.2171 31.666 33.333C31.666 32.449 31.3148 31.6011 30.6897 30.976C30.0646 30.3509 29.2167 29.9997 28.3327 29.9997ZM1.66602 3.33301V6.66634H4.99935L10.9993 19.3163L8.73268 23.3997C8.48268 23.8663 8.33268 24.4163 8.33268 24.9997C8.33268 25.8837 8.68387 26.7316 9.30899 27.3567C9.93411 27.9818 10.782 28.333 11.666 28.333H31.666V24.9997H12.366C12.2555 24.9997 12.1495 24.9558 12.0714 24.8776C11.9932 24.7995 11.9493 24.6935 11.9493 24.583C11.9493 24.4997 11.966 24.433 11.9993 24.383L13.4993 21.6663H25.916C27.166 21.6663 28.266 20.9663 28.8327 19.9497L34.7993 9.16634C34.916 8.89967 34.9993 8.61634 34.9993 8.33301C34.9993 7.89098 34.8238 7.46706 34.5112 7.1545C34.1986 6.84194 33.7747 6.66634 33.3327 6.66634H8.68268L7.11602 3.33301M11.666 29.9997C9.81602 29.9997 8.33268 31.483 8.33268 33.333C8.33268 34.2171 8.68387 35.0649 9.30899 35.69C9.93411 36.3152 10.782 36.6663 11.666 36.6663C12.5501 36.6663 13.3979 36.3152 14.023 35.69C14.6482 35.0649 14.9993 34.2171 14.9993 33.333C14.9993 32.449 14.6482 31.6011 14.023 30.976C13.3979 30.3509 12.5501 29.9997 11.666 29.9997Z" fill="#442A07"/>
</svg>
