<svg width="14" height="14" viewBox="0 0 14 14" fill="none" xmlns="http://www.w3.org/2000/svg">
<path d="M1.85096 13.932H0V12.0901L10.4374 1.67754L12.3143 3.54564L1.85096 13.932ZM12.7117 3.14811L10.8365 1.28202L11.902 0.2552C12.0666 0.0904272 12.319 2.96162e-06 12.5529 2.96162e-06C12.668 -0.000296393 12.7821 0.0221008 12.8885 0.0659017C12.9949 0.109703 13.0915 0.17404 13.1728 0.2552L13.7449 0.824538C13.8261 0.90533 13.8905 1.00131 13.9342 1.10696C13.978 1.2126 14.0004 1.32582 14 1.44009C14 1.67453 13.9088 1.92403 13.7436 2.08847L12.7117 3.14811Z" fill="#442A07"/>
</svg>
