<svg width="33" height="34" viewBox="0 0 33 34" fill="none" xmlns="http://www.w3.org/2000/svg">
<path d="M2.10732 9.18333C3.49461 6.42256 5.62202 4.10176 8.25198 2.48011C10.8819 0.858454 13.9109 -0.000210812 17.0007 3.88223e-08C21.4923 3.88223e-08 25.2657 1.65167 28.1507 4.34167L23.3723 9.12167C21.644 7.47 19.4473 6.62833 17.0007 6.62833C12.659 6.62833 8.98399 9.56167 7.67565 13.5C7.34232 14.5 7.15232 15.5667 7.15232 16.6667C7.15232 17.7667 7.34232 18.8333 7.67565 19.8333C8.98565 23.7733 12.659 26.705 17.0007 26.705C19.2423 26.705 21.1507 26.1133 22.644 25.1133C23.5097 24.5433 24.2509 23.8037 24.8227 22.9392C25.3944 22.0746 25.785 21.1031 25.9707 20.0833H17.0007V13.6367H32.6973C32.894 14.7267 33.0007 15.8633 33.0007 17.045C33.0007 22.1217 31.184 26.395 28.0307 29.295C25.274 31.8417 21.5007 33.3333 17.0007 33.3333C14.8117 33.3342 12.644 32.9037 10.6216 32.0664C8.59907 31.2292 6.7614 30.0016 5.21359 28.4537C3.66577 26.9059 2.43814 25.0682 1.60088 23.0458C0.763608 21.0233 0.33311 18.8556 0.333986 16.6667C0.333986 13.9767 0.977319 11.4333 2.10732 9.18333Z" fill="#CC8D80"/>
</svg>
