<svg width="33" height="32" viewBox="0 0 33 32" fill="none" xmlns="http://www.w3.org/2000/svg">
<path d="M22.166 4.33313C23.6809 4.33774 25.1325 4.95385 26.2038 6.04689C27.275 7.13993 27.8788 8.62109 27.8833 10.1669V21.8331C27.8788 23.3789 27.275 24.8601 26.2038 25.9531C25.1325 27.0462 23.6809 27.6623 22.166 27.6669H10.7325C9.21751 27.6623 7.7659 27.0462 6.69467 25.9531C5.62343 24.8601 5.01962 23.3789 5.01509 21.8331V10.1669C5.01962 8.62109 5.62343 7.13993 6.69467 6.04689C7.7659 4.95385 9.21751 4.33774 10.7325 4.33313H22.166ZM22.166 2H10.7325C6.3302 2 2.72852 5.675 2.72852 10.1669V21.8331C2.72852 26.325 6.3302 30 10.7325 30H22.166C26.5682 30 30.1699 26.325 30.1699 21.8331V10.1669C30.1699 5.675 26.5682 2 22.166 2Z" fill="#442A07"/>
<path d="M23.8801 10.167C23.5409 10.167 23.2093 10.0644 22.9272 9.87207C22.6452 9.67977 22.4254 9.40646 22.2955 9.08669C22.1657 8.76692 22.1318 8.41505 22.1979 8.07558C22.2641 7.73612 22.4275 7.4243 22.6673 7.17956C22.9072 6.93481 23.2128 6.76814 23.5455 6.70062C23.8782 6.63309 24.223 6.66775 24.5364 6.8002C24.8498 6.93266 25.1177 7.15696 25.3061 7.44475C25.4946 7.73253 25.5952 8.07088 25.5952 8.41699C25.5956 8.64694 25.5516 8.87473 25.4656 9.08727C25.3796 9.29982 25.2533 9.49293 25.0939 9.65553C24.9346 9.81813 24.7453 9.94702 24.537 10.0348C24.3287 10.1226 24.1054 10.1675 23.8801 10.167ZM16.4482 11.3332C17.3528 11.3332 18.2371 11.607 18.9893 12.1198C19.7414 12.6326 20.3277 13.3614 20.6739 14.2142C21.02 15.0669 21.1106 16.0053 20.9341 16.9106C20.7576 17.8159 20.322 18.6474 19.6824 19.3001C19.0427 19.9528 18.2278 20.3972 17.3405 20.5773C16.4533 20.7574 15.5337 20.665 14.6979 20.3117C13.8622 19.9585 13.1479 19.3604 12.6453 18.5929C12.1427 17.8254 11.8745 16.9231 11.8745 16.0001C11.8758 14.7628 12.3581 13.5765 13.2155 12.7016C14.073 11.8267 15.2356 11.3346 16.4482 11.3332ZM16.4482 9.00012C15.0914 9.00012 13.765 9.41066 12.6368 10.1798C11.5087 10.949 10.6293 12.0423 10.1101 13.3213C9.59086 14.6004 9.45501 16.0079 9.71971 17.3658C9.98442 18.7236 10.6378 19.9709 11.5972 20.9499C12.5567 21.9288 13.7791 22.5955 15.1099 22.8656C16.4406 23.1357 17.82 22.9971 19.0736 22.4673C20.3271 21.9375 21.3986 21.0403 22.1524 19.8891C22.9062 18.738 23.3086 17.3846 23.3086 16.0001C23.3086 14.1436 22.5858 12.3631 21.2992 11.0504C20.0127 9.73762 18.2677 9.00012 16.4482 9.00012Z" fill="#442A07"/>
</svg>
