<svg width="40" height="40" viewBox="0 0 40 40" fill="none" xmlns="http://www.w3.org/2000/svg">
<path d="M33.3327 29.1663C33.9747 29.1667 34.592 29.414 35.0567 29.857C35.5213 30.3001 35.7977 30.9049 35.8286 31.5462C35.8594 32.1875 35.6424 32.8161 35.2224 33.3017C34.8024 33.7873 34.2117 34.0927 33.5727 34.1547L33.3327 34.1663H6.66602C6.02399 34.166 5.40669 33.9187 4.94204 33.4757C4.47738 33.0326 4.201 32.4278 4.17014 31.7865C4.13929 31.1452 4.35634 30.5166 4.77631 30.031C5.19628 29.5454 5.78698 29.24 6.42602 29.178L6.66602 29.1663H33.3327ZM33.3327 17.4997C33.9957 17.4997 34.6316 17.7631 35.1004 18.2319C35.5693 18.7007 35.8327 19.3366 35.8327 19.9997C35.8327 20.6627 35.5693 21.2986 35.1004 21.7674C34.6316 22.2363 33.9957 22.4997 33.3327 22.4997H6.66602C6.00297 22.4997 5.36709 22.2363 4.89825 21.7674C4.42941 21.2986 4.16602 20.6627 4.16602 19.9997C4.16602 19.3366 4.42941 18.7007 4.89825 18.2319C5.36709 17.7631 6.00297 17.4997 6.66602 17.4997H33.3327ZM33.3327 5.83301C33.9957 5.83301 34.6316 6.0964 35.1004 6.56524C35.5693 7.03408 35.8327 7.66997 35.8327 8.33301C35.8327 8.99605 35.5693 9.63193 35.1004 10.1008C34.6316 10.5696 33.9957 10.833 33.3327 10.833H6.66602C6.00297 10.833 5.36709 10.5696 4.89825 10.1008C4.42941 9.63193 4.16602 8.99605 4.16602 8.33301C4.16602 7.66997 4.42941 7.03408 4.89825 6.56524C5.36709 6.0964 6.00297 5.83301 6.66602 5.83301H33.3327Z" fill="#442A07"/>
</svg>
