<svg width="25" height="25" viewBox="0 0 25 25" fill="none" xmlns="http://www.w3.org/2000/svg">
<path d="M12.5 3.12539C10.5661 3.12539 8.71147 3.89362 7.34401 5.26107C5.97656 6.62852 5.20833 8.48319 5.20833 10.4171C5.20833 13.3983 7.06458 16.2743 9.10208 18.5025C10.1439 19.6375 11.2807 20.6816 12.5 21.6233C12.6819 21.4837 12.8955 21.3136 13.1406 21.1129C14.1196 20.309 15.0409 19.4374 15.8979 18.5046C17.9354 16.2743 19.7917 13.3993 19.7917 10.4171C19.7917 8.48319 19.0234 6.62852 17.656 5.26107C16.2885 3.89362 14.4339 3.12539 12.5 3.12539ZM12.5 24.1816L11.9094 23.7754L11.9062 23.7733L11.9 23.7681L11.8792 23.7535L11.801 23.6983L11.5198 23.4931C10.0946 22.422 8.7707 21.2226 7.56458 19.9098C5.43542 17.5785 3.125 14.2046 3.125 10.416C3.125 7.92961 4.11272 5.54504 5.87087 3.78689C7.62903 2.02874 10.0136 1.04102 12.5 1.04102C14.9864 1.04102 17.371 2.02874 19.1291 3.78689C20.8873 5.54504 21.875 7.92961 21.875 10.416C21.875 14.2046 19.5646 17.5796 17.4354 19.9077C16.2296 21.2204 14.906 22.4199 13.4812 23.491C13.3626 23.5797 13.2428 23.6668 13.1219 23.7525L13.1 23.7671L13.0937 23.7723L13.0917 23.7733L12.5 24.1816ZM12.5 8.33372C11.9475 8.33372 11.4176 8.55322 11.0269 8.94392C10.6362 9.33462 10.4167 9.86452 10.4167 10.4171C10.4167 10.9696 10.6362 11.4995 11.0269 11.8902C11.4176 12.2809 11.9475 12.5004 12.5 12.5004C13.0525 12.5004 13.5824 12.2809 13.9731 11.8902C14.3638 11.4995 14.5833 10.9696 14.5833 10.4171C14.5833 9.86452 14.3638 9.33462 13.9731 8.94392C13.5824 8.55322 13.0525 8.33372 12.5 8.33372ZM8.33333 10.4171C8.33333 9.31199 8.77232 8.25218 9.55372 7.47078C10.3351 6.68938 11.3949 6.25039 12.5 6.25039C13.6051 6.25039 14.6649 6.68938 15.4463 7.47078C16.2277 8.25218 16.6667 9.31199 16.6667 10.4171C16.6667 11.5221 16.2277 12.5819 15.4463 13.3633C14.6649 14.1447 13.6051 14.5837 12.5 14.5837C11.3949 14.5837 10.3351 14.1447 9.55372 13.3633C8.77232 12.5819 8.33333 11.5221 8.33333 10.4171Z" fill="#CC8D80"/>
</svg>