<svg width="27" height="25" viewBox="0 0 27 25" fill="none" xmlns="http://www.w3.org/2000/svg">
<path d="M5.09549 8.29199C5.89446 11.1904 7.51598 13.8359 9.79046 15.9517C12.0649 18.0675 14.9088 19.5759 18.0246 20.3191C20.4221 20.8868 22.459 18.9691 22.459 16.667V15.6253C22.459 15.0503 21.9562 14.5889 21.3403 14.5316C20.3209 14.4373 19.3201 14.2133 18.3661 13.866L16.6652 15.4493C13.8938 14.2134 11.6591 12.1346 10.3305 9.55658L12.0326 7.97324C11.6588 7.08586 11.4176 6.15495 11.3159 5.20658C11.2555 4.63366 10.7594 4.16699 10.1413 4.16699H9.02148C6.54899 4.16699 4.48633 6.06178 5.09662 8.29199" stroke="#CC8D80" strokeWidth="2.5" strokeLinecap="round" strokeLinejoin="round"/>
</svg>