<svg width="25" height="25" viewBox="0 0 25 25" fill="none" xmlns="http://www.w3.org/2000/svg">
<path d="M20.834 4.16699C21.3596 4.16683 21.8658 4.36533 22.2512 4.72272C22.6366 5.0801 22.8727 5.56996 22.9121 6.09408L22.9173 6.25033V18.7503C22.9175 19.2759 22.719 19.7822 22.3616 20.1676C22.0042 20.553 21.5144 20.789 20.9902 20.8285L20.834 20.8337H4.16732C3.64172 20.8338 3.13548 20.6353 2.75008 20.2779C2.36468 19.9205 2.12861 19.4307 2.08919 18.9066L2.08398 18.7503V6.25033C2.08382 5.72473 2.28232 5.21849 2.63971 4.83309C2.9971 4.44769 3.48695 4.21162 4.01107 4.1722L4.16732 4.16699H20.834ZM20.834 7.72324L13.6048 14.9524C13.3118 15.245 12.9147 15.4094 12.5007 15.4094C12.0866 15.4094 11.6895 15.245 11.3965 14.9524L4.16732 7.72324V18.7503H20.834V7.72324ZM19.3611 6.25033H5.64023L12.5007 13.1107L19.3611 6.25033Z" fill="#CC8D80"/>
</svg>